<svg width="112" height="27" viewBox="0 0 112 27" fill="none" xmlns="http://www.w3.org/2000/svg">
<path d="M5.29025 13.476C5.55199 13.476 5.81374 13.476 6.07548 13.476C7.38348 13.4775 8.54048 14.4423 8.79575 15.7445C9.09202 17.2527 8.23271 18.6783 6.76938 19.0873C6.53856 19.1516 6.29264 19.1815 6.05318 19.1888C5.55559 19.2042 5.05726 19.1954 4.55895 19.1932C3.89235 19.1896 3.28906 18.9931 2.76915 18.5636C2.18454 18.0809 1.84156 17.4601 1.738 16.6976C1.54817 15.2939 2.43623 13.9493 3.75143 13.5878C3.98296 13.5242 4.22673 13.4964 4.4669 13.4804C4.74015 13.4621 5.01555 13.476 5.29025 13.476Z" fill="white"/>
<path d="M5.36875 11.778C5.86059 11.778 6.35316 11.7568 6.84358 11.7823C8.17531 11.851 9.28773 12.3761 10.0974 13.4797C10.467 13.9836 10.6813 14.554 10.7036 15.1902C10.7072 15.2858 10.723 15.3844 10.7057 15.4765C10.6684 15.6802 10.549 15.7693 10.3577 15.7591C10.1866 15.7496 10.06 15.6189 10.0435 15.4282C10.032 15.2931 10.0363 15.1558 10.0154 15.0222C9.886 14.1983 9.44089 13.5783 8.7779 13.1138C8.26519 12.7544 7.69568 12.5383 7.07153 12.4849C6.84358 12.4652 6.61419 12.4506 6.38481 12.4491C5.6118 12.4448 4.83879 12.4389 4.06651 12.4491C3.17053 12.4623 2.36084 12.7406 1.66981 13.3314C1.17077 13.7579 0.836402 14.2904 0.712001 14.9477C0.686833 15.0806 0.684677 15.2179 0.659509 15.3508C0.622836 15.5422 0.485492 15.6496 0.310038 15.6379C0.144649 15.6269 0.00370982 15.4867 0.00299072 15.299C0.00299072 15.1325 0.0216867 14.9623 0.0554834 14.7987C0.316508 13.5286 1.09455 12.6909 2.22782 12.1643C2.82105 11.8882 3.44953 11.7633 4.10389 11.7721C4.52527 11.778 4.94666 11.7728 5.36875 11.7728C5.36875 11.7743 5.36875 11.7758 5.36875 11.7772V11.778Z" fill="#FFF200"/>
<path d="M5.35788 20.8175C4.81498 20.8175 4.26848 20.8599 3.7299 20.8095C2.23204 20.67 1.04054 20.0046 0.3229 18.6089C0.0985475 18.1722 -0.00212331 17.6974 3.39183e-05 17.2037C0.00147207 16.97 0.146726 16.8312 0.357415 16.84C0.519926 16.8466 0.63426 16.9452 0.656553 17.1102C0.679562 17.2833 0.681719 17.4593 0.71264 17.6302C0.842794 18.3526 1.22031 18.9215 1.7855 19.3677C2.32265 19.7913 2.93171 20.0397 3.60693 20.1105C3.8471 20.1353 4.08943 20.147 4.33104 20.1485C5.10405 20.1529 5.87633 20.1536 6.64935 20.1485C7.42954 20.1441 8.14791 19.9235 8.78933 19.4729C9.37465 19.0617 9.79387 18.5198 9.97148 17.8077C10.0089 17.658 10.0118 17.5002 10.0441 17.3491C10.065 17.2512 10.0923 17.146 10.1484 17.0671C10.2268 16.9561 10.377 16.9327 10.495 16.9809C10.6431 17.0416 10.7172 17.1613 10.7129 17.333C10.6992 17.8544 10.5647 18.3445 10.3116 18.7966C9.79316 19.7234 9.00001 20.2982 8.01488 20.6188C7.57552 20.762 7.12321 20.8306 6.66013 20.8233C6.22581 20.8168 5.79149 20.8219 5.35716 20.8219C5.35716 20.8197 5.35716 20.8182 5.35716 20.816L5.35788 20.8175Z" fill="#FFF200"/>
<path d="M5.36431 10.0763C4.64597 10.1193 3.83628 9.51606 3.84059 8.54324C3.84419 7.65951 4.48776 7 5.36431 7C6.31423 7 6.88157 7.80485 6.87726 8.55127C6.87293 9.39482 6.1589 10.112 5.36431 10.0755V10.0763Z" fill="#FFF200"/>
<path d="M53.6117 16.4142C53.954 16.8166 54.1949 17.246 54.2394 17.7712C54.3531 19.1004 53.3989 20.1967 52.078 20.2208C51.156 20.2376 50.2342 20.2244 49.3123 20.2244C47.8297 20.2244 46.3476 20.2259 44.8649 20.2244C43.6619 20.223 42.8787 19.432 42.8774 18.2152C42.8751 16.6165 42.8758 15.017 42.8774 13.4183C42.8774 12.8011 43.1024 12.574 43.71 12.5732C46.426 12.5725 49.142 12.5761 51.8579 12.571C52.8258 12.5696 53.596 12.9391 54.0266 13.8302C54.4567 14.7197 54.3041 15.5662 53.6678 16.3207C53.6519 16.3397 53.6418 16.3638 53.6124 16.4149L53.6117 16.4142ZM45.7751 17.0218C45.617 15.9088 46.078 15.751 46.7647 15.7656C48.097 15.7948 49.4309 15.7744 50.7642 15.7744C51.2007 15.7744 51.6372 15.7846 52.0721 15.7707C52.5928 15.7539 52.9976 15.3508 53.0306 14.8439C53.0616 14.3692 52.7029 13.9324 52.1966 13.8389C52.0628 13.8141 51.9248 13.8024 51.7888 13.8024C49.3468 13.8002 46.9042 13.801 44.4622 13.8024C44.355 13.8024 44.2478 13.8178 44.1306 13.8265C44.1228 13.9587 44.1119 14.058 44.1119 14.1574C44.1105 15.5173 44.1091 16.8772 44.1119 18.2379C44.1134 18.8053 44.3133 18.9967 44.8879 18.9974C47.2055 18.9982 49.523 18.9982 51.8413 18.9974C52.5526 18.9974 53.0357 18.6133 53.0306 18.0246C53.0263 17.5382 52.6826 17.0036 51.8385 17.0153C49.9573 17.0415 48.0756 17.0233 46.1936 17.0233C46.0593 17.0233 45.9247 17.0233 45.7751 17.0233V17.0218Z" fill="white"/>
<path d="M87.0818 17.0883V20.2215C86.833 20.2215 86.6243 20.234 86.4173 20.2186C86.1023 20.196 85.8975 19.9783 85.8686 19.6584C85.8622 19.5832 85.8665 19.5072 85.8665 19.432C85.8665 17.2797 85.8665 15.1266 85.8665 12.9742V12.5879C85.9614 12.5813 86.0211 12.5769 86.08 12.5733C86.8667 12.5251 87.1227 12.7157 87.0875 13.5556C87.0581 14.2699 87.0818 14.9864 87.0818 15.7386C87.2271 15.7488 87.3457 15.7635 87.4643 15.7642C88.4853 15.7664 89.5072 15.773 90.5283 15.7583C90.7166 15.7554 90.9244 15.7036 91.0891 15.6115C92.7343 14.6949 94.3725 13.7652 96.0127 12.8399C96.132 12.7727 96.2492 12.6996 96.3737 12.6427C96.6937 12.4944 97.0223 12.5945 97.1826 12.8822C97.353 13.1875 97.2638 13.5308 96.9598 13.7345C96.8978 13.7762 96.8303 13.809 96.7648 13.8456C95.2655 14.6891 93.7663 15.5334 92.2232 16.4018C92.3569 16.4807 92.459 16.5435 92.5632 16.6019C93.9763 17.3965 95.3885 18.1933 96.8052 18.9829C97.0734 19.1326 97.2811 19.3108 97.2638 19.6489C97.2387 20.1456 96.7425 20.3764 96.2601 20.1076C95.2145 19.524 94.1733 18.9317 93.1307 18.3438C92.4244 17.9458 91.7183 17.5477 91.0093 17.1555C90.9036 17.0971 90.78 17.0386 90.6649 17.0379C89.5065 17.0313 88.3487 17.0379 87.1904 17.0408C87.1687 17.0408 87.1472 17.0591 87.0839 17.0883H87.0818Z" fill="white"/>
<path d="M32.1083 20.2245C32.1083 20.0398 32.1061 19.9156 32.1083 19.7914C32.119 19.2787 32.3916 18.999 32.8999 18.9975C34.2706 18.9932 35.641 18.9961 37.0123 18.9961C37.1986 18.9961 37.3848 18.9961 37.6251 18.9961C37.5588 18.8705 37.5172 18.7733 37.4604 18.6871C36.4803 17.1848 35.4994 15.6832 34.5164 14.1823C34.1748 13.6609 33.8311 13.6638 33.494 14.1874C32.2787 16.0754 31.0641 17.9641 29.8496 19.8528C29.7748 19.9689 29.6964 20.0821 29.6015 20.2238C29.3153 20.2238 29.0177 20.2362 28.7214 20.2209C28.3878 20.2034 28.2418 19.9302 28.4165 19.6366C28.6021 19.324 28.8185 19.0304 29.019 18.7266C30.2027 16.9379 31.4194 15.1698 32.5569 13.3519C33.1661 12.3784 34.7386 12.3009 35.4355 13.3117C36.7592 15.2326 38.1449 17.1096 39.5141 18.9975C39.7139 19.2729 39.8291 19.5446 39.6772 19.8674C39.5262 20.1888 39.2379 20.2289 38.9194 20.2282C36.7888 20.2223 34.6574 20.2253 32.5268 20.2253C32.4046 20.2253 32.2816 20.2253 32.1083 20.2253V20.2245Z" fill="white"/>
<path d="M104.361 20.2245C104.361 20.0398 104.359 19.9156 104.361 19.7914C104.372 19.2787 104.645 18.999 105.153 18.9975C106.524 18.9932 107.894 18.9961 109.265 18.9961C109.452 18.9961 109.638 18.9961 109.878 18.9961C109.812 18.8705 109.77 18.7733 109.713 18.6871C108.733 17.1848 107.752 15.6832 106.769 14.1823C106.428 13.6609 106.084 13.6638 105.747 14.1874C104.532 16.0754 103.317 17.9641 102.103 19.8528C102.028 19.9689 101.949 20.0821 101.855 20.2238C101.568 20.2238 101.271 20.2362 100.974 20.2209C100.641 20.2034 100.495 19.9302 100.67 19.6366C100.855 19.324 101.072 19.0304 101.272 18.7266C102.456 16.9379 103.672 15.1698 104.81 13.3519C105.419 12.3784 106.992 12.3009 107.689 13.3117C109.012 15.2326 110.398 17.1096 111.767 18.9975C111.967 19.2729 112.082 19.5446 111.93 19.8674C111.779 20.1888 111.491 20.2289 111.172 20.2282C109.042 20.2223 106.91 20.2253 104.78 20.2253C104.658 20.2253 104.535 20.2253 104.361 20.2253V20.2245Z" fill="white"/>
<path d="M70.9106 12.5725C71.091 12.5725 71.2147 12.5711 71.3392 12.5725C71.8719 12.5806 72.1207 12.8231 72.1244 13.3569C72.1301 14.1377 72.1251 14.9184 72.1258 15.6999C72.128 17.6689 73.441 18.996 75.3868 18.9967C76.2217 18.9967 77.0571 18.9989 77.892 18.9967C79.6919 18.9916 81.0272 17.6412 81.0329 15.819C81.0359 14.887 81.0329 13.9551 81.0329 13.0224C81.0329 12.8866 81.0329 12.75 81.0329 12.5747C81.253 12.5747 81.437 12.563 81.619 12.5769C81.9693 12.6047 82.2583 12.8544 82.2576 13.2006C82.2576 14.3327 82.3173 15.4757 82.1878 16.5946C81.9506 18.6454 80.1255 20.2062 78.0854 20.223C77.0758 20.231 76.0664 20.2347 75.0568 20.223C72.8097 20.1952 70.925 18.2759 70.9106 16.0074C70.904 14.9747 70.9091 13.942 70.9091 12.9092V12.574L70.9106 12.5725Z" fill="white"/>
<path d="M58.8608 12.5901V13.5629C58.8608 15.1244 58.8601 16.6859 58.8608 18.2474C58.8608 18.812 59.0414 18.996 59.5942 18.996C62.398 18.9967 65.2011 18.996 68.0046 18.9974C68.7454 18.9974 69.1142 19.4284 69.0193 20.2252H68.6266C65.5865 20.2252 62.5462 20.2259 59.5059 20.2252C58.3431 20.2252 57.6283 19.4977 57.627 18.3109C57.624 16.7246 57.6263 15.1375 57.627 13.5512C57.627 12.7464 57.8197 12.5572 58.6265 12.574C58.6877 12.5755 58.7488 12.5828 58.8608 12.5908V12.5901Z" fill="white"/>
<path d="M22.0938 17.3147V20.2135C21.835 20.2135 21.6012 20.2347 21.3725 20.2084C21.0497 20.1711 20.8721 19.9279 20.8664 19.5255C20.857 18.9207 20.8634 18.316 20.8634 17.712C20.8634 17.5747 20.8634 17.4374 20.8634 17.2964C19.7647 16.5223 18.6825 15.7591 17.5996 14.9966C17.1393 14.673 16.6784 14.3502 16.2189 14.0274C15.7954 13.7301 15.6875 13.3774 15.9183 13.0487C16.1434 12.7288 16.5116 12.7135 16.9373 13.0122C18.4409 14.0683 19.943 15.1251 21.4769 16.2038C21.5811 16.133 21.6925 16.0592 21.8019 15.9825C23.2127 14.99 24.6228 13.9974 26.0336 13.0056C26.0746 12.9771 26.1156 12.9487 26.1581 12.9224C26.496 12.7127 26.8591 12.7675 27.0489 13.0575C27.2489 13.3628 27.1812 13.7126 26.8562 13.9456C26.1752 14.4327 25.4878 14.9104 24.8025 15.3924C23.9849 15.9679 23.1666 16.5427 22.3497 17.119C22.2692 17.1759 22.193 17.2402 22.0945 17.3169L22.0938 17.3147Z" fill="white"/>
</svg>
