<?xml version="1.0" encoding="UTF-8"?>
<svg id="_Слой_1" data-name="Слой 1" xmlns="http://www.w3.org/2000/svg" viewBox="0 0 274 64">
  <defs>
    <style>
      .cls-1 {
        fill: #ece81a;
      }

      .cls-1, .cls-2 {
        stroke-width: 0px;
      }

      .cls-2 {
        fill: #fff;
      }
    </style>
  </defs>
  <g>
    <path class="cls-2" d="m77.48,23.98c-.35,0-.69.11-.98.32h0s-10.02,8.03-10.02,8.03l-10.03-8.01h0c-.29-.21-.63-.32-.98-.32-.54,0-1.05.26-1.37.7-.54.75-.37,1.79.37,2.34h0s10.32,8.25,10.32,8.25v5.13c0,.95.78,1.73,1.73,1.73h1.63v-6.87l10.31-8.26h0c.36-.27.59-.65.66-1.09.07-.44-.03-.89-.29-1.25-.31-.44-.83-.7-1.37-.7Z"/>
    <path class="cls-2" d="m108.07,39.12l-9.54-13.36c-.65-.91-1.58-1.51-2.61-1.71-.07-.01-.14-.02-.21-.03-.18-.03-.37-.04-.55-.04-1.41,0-2.74.73-3.54,1.95l-9.46,14.35v.02c-.29.33-.36.77-.18,1.18.18.41.58.67,1.03.67h2.18l9.19-14.38c.13-.2.3-.33.5-.39.05-.01.1-.02.15-.03.02,0,.05,0,.07,0,.29,0,.58.17.75.43l7.11,11.01h-10.52c-1.07,0-1.95.87-1.95,1.95v1.41h16.23c.73,0,1.36-.42,1.66-1.08.28-.65.17-1.39-.31-1.92h-.01Z"/>
    <path class="cls-2" d="m141.39,31.35c.3-.83.38-1.7.25-2.59-.19-1.26-.85-2.41-1.87-3.24-1-.81-2.26-1.26-3.55-1.26h-19.29c-.99,0-1.8.81-1.8,1.8v11.49c0,2.53,2.06,4.6,4.6,4.6h16.49c1.29,0,2.55-.45,3.55-1.26,1.01-.83,1.68-1.98,1.87-3.24.13-.89.05-1.76-.25-2.59-.21-.59-.52-1.13-.93-1.61l-.19-.23.19-.23c.41-.49.72-1.03.93-1.61Zm-5,3.53c.59,0,1.14.26,1.51.72.38.46.52,1.05.4,1.64-.18.89-1.01,1.54-1.97,1.54h-16.79c-.57,0-1.04-.47-1.04-1.04v-10.13h17.82c.96,0,1.79.65,1.97,1.54.12.6-.02,1.18-.4,1.64-.37.46-.92.72-1.51.72h-12.92c-.98,0-1.77.79-1.77,1.77v1.59h14.69Z"/>
    <path class="cls-2" d="m173.4,38.78h-19.93c-.53,0-.96-.43-.96-.96v-13.57h-1.57c-.99,0-1.79.8-1.79,1.79v11.78c0,2.38,1.94,4.32,4.32,4.32h22.36v-.93c0-1.34-1.09-2.43-2.43-2.43Z"/>
    <path class="cls-2" d="m204.02,24.25h-1.49v7.79c0,3.71-3.02,6.74-6.74,6.74h-6.34c-3.71,0-6.74-3.02-6.74-6.74v-5.92c0-1.03-.84-1.87-1.87-1.87h-1.49v7.79c0,2.7,1.05,5.23,2.96,7.14,1.91,1.91,4.44,2.96,7.14,2.96h6.34c2.7,0,5.23-1.05,7.14-2.96,1.91-1.91,2.96-4.44,2.96-7.14v-5.92c0-1.03-.84-1.87-1.87-1.87Z"/>
    <path class="cls-2" d="m239.15,27.42c.39-.2.69-.55.83-.97.14-.43.1-.88-.1-1.28-.29-.57-.86-.92-1.5-.92-.26,0-.53.06-.76.18h0s-12.67,7.08-12.67,7.08h-8.15v-5.57c0-.93-.76-1.69-1.69-1.69h-1.67v16.2c0,.93.76,1.69,1.69,1.69h1.67v-7.25h8.15l12.67,7.06h0c.24.12.5.19.76.19h0c.64,0,1.21-.35,1.5-.92.2-.4.24-.86.1-1.28-.14-.42-.43-.77-.83-.97h0s-10.38-5.76-10.38-5.76l10.38-5.78h0Z"/>
    <path class="cls-2" d="m273.54,39.13h-.01s-9.54-13.37-9.54-13.37c-.65-.91-1.58-1.51-2.61-1.71-.07-.01-.14-.02-.2-.03-.18-.03-.37-.04-.55-.04-1.41,0-2.74.73-3.54,1.95l-9.46,14.35v.02c-.29.33-.36.77-.18,1.18.18.41.58.67,1.03.67h2.18l9.19-14.38c.13-.2.3-.33.5-.39.05-.01.1-.02.15-.03.02,0,.05,0,.07,0,.29,0,.58.17.75.43l7.11,11.01h-10.52c-1.07,0-1.95.87-1.95,1.95v1.41h16.23c.73,0,1.36-.42,1.66-1.08.29-.65.17-1.39-.31-1.92Z"/>
  </g>
  <g>
    <circle class="cls-1" cx="17.92" cy="9.58" r="5.01"/>
    <path class="cls-1" d="m21.22,48h-6.6c-6.89,0-12.88-4.67-14.57-11.35-.22-.89.31-1.79,1.2-2.02.89-.22,1.79.31,2.02,1.2,1.31,5.2,5.98,8.84,11.35,8.84h6.6c5.37,0,10.04-3.63,11.35-8.84.22-.89,1.13-1.43,2.02-1.2.89.22,1.43,1.13,1.2,2.02-1.69,6.68-7.68,11.35-14.57,11.35Z"/>
    <path class="cls-1" d="m14.62,17.94h6.6c6.89,0,12.88,4.67,14.57,11.35.22.89-.31,1.79-1.2,2.02-.89.22-1.79-.31-2.02-1.2-1.31-5.2-5.98-8.84-11.35-8.84h-6.6c-5.37,0-10.04,3.63-11.35,8.84-.22.89-1.13,1.43-2.02,1.2-.89-.22-1.43-1.13-1.2-2.02,1.69-6.68,7.68-11.35,14.57-11.35Z"/>
    <rect class="cls-2" x="6.23" y="24.61" width="23.39" height="16.71" rx="8.35" ry="8.35" transform="translate(35.84 65.93) rotate(180)"/>
  </g>
  <g>
    <path class="cls-2" d="m55.35,56.52c-.23,0-.35-.17-.35-.5v-6.89c0-.34.11-.52.32-.52.17,0,.31.09.43.28l3.11,4.73,3.13-4.73c.12-.19.26-.28.42-.28.22,0,.33.17.33.52v6.89c0,.33-.12.5-.35.5s-.35-.17-.35-.5v-5.98l-2.96,4.53c-.04.07-.11.1-.2.1-.04,0-.08,0-.12-.03s-.07-.04-.1-.07l-2.96-4.53v5.98c0,.33-.12.5-.35.5Z"/>
    <path class="cls-2" d="m68.47,56.4c-.78,0-1.43-.08-1.94-.24-.51-.16-.89-.45-1.14-.87-.25-.42-.38-1.02-.38-1.8v-1.85c0-.78.13-1.38.38-1.8.25-.42.63-.71,1.14-.87s1.16-.24,1.94-.24h.48c.78,0,1.42.08,1.93.24s.89.45,1.14.87c.25.42.37,1.02.37,1.8v.6h-6.69v1.25c0,.62.09,1.09.26,1.41s.46.53.86.64.95.17,1.64.17h2.23c.38,0,.64-.08.78-.25.14-.17.22-.43.22-.8,0-.18.04-.32.11-.4.07-.09.15-.13.24-.13.09,0,.18.04.25.12.07.08.1.19.1.33,0,.34-.03.65-.1.92-.07.28-.22.5-.44.66-.23.16-.57.25-1.04.25h-2.35Zm-2.76-4.86h5.99c0-.77-.16-1.31-.48-1.61-.21-.2-.49-.33-.87-.4s-.84-.1-1.4-.1h-.48c-.54,0-.99.03-1.35.08s-.65.17-.87.35c-.37.29-.55.85-.55,1.68Z"/>
    <path class="cls-2" d="m74.98,59.43c-.22,0-.33-.17-.33-.5v-9.82c0-.33.12-.5.35-.5.12,0,.2.04.26.12.06.08.09.21.09.37v1.13l-.12-.15c.31-.46.71-.8,1.19-1.03.48-.22,1.04-.34,1.69-.34h.48c.78,0,1.42.08,1.93.24s.89.45,1.14.87c.25.42.37,1.02.37,1.8v1.85c0,.78-.12,1.38-.37,1.8-.25.42-.63.71-1.14.87-.51.16-1.15.24-1.93.24h-3.25v2.53c0,.33-.12.5-.37.5Zm.37-3.73h3.25c.69,0,1.24-.06,1.64-.17s.68-.33.85-.65c.17-.32.25-.79.25-1.4v-1.85c0-.65-.09-1.14-.27-1.45s-.48-.52-.88-.62c-.4-.1-.93-.15-1.59-.15h-.48c-.89,0-1.57.27-2.05.81-.48.54-.71,1.31-.71,2.31v3.16Z"/>
    <path class="cls-2" d="m87.57,56.4c-.78,0-1.43-.08-1.94-.24-.51-.16-.89-.45-1.14-.87-.25-.42-.38-1.02-.38-1.8v-1.85c0-.78.13-1.38.38-1.8.25-.42.63-.71,1.14-.87s1.16-.24,1.94-.24h.48c.78,0,1.42.08,1.93.24s.89.45,1.14.87c.25.42.37,1.02.37,1.8v.6h-6.69v1.25c0,.62.09,1.09.26,1.41s.46.53.86.64.95.17,1.64.17h2.23c.38,0,.64-.08.78-.25.14-.17.22-.43.22-.8,0-.18.04-.32.11-.4.07-.09.15-.13.24-.13.09,0,.18.04.25.12.07.08.1.19.1.33,0,.34-.03.65-.1.92-.07.28-.22.5-.44.66-.23.16-.57.25-1.04.25h-2.35Zm-2.76-4.86h5.99c0-.77-.16-1.31-.48-1.61-.21-.2-.49-.33-.87-.4s-.84-.1-1.4-.1h-.48c-.54,0-.99.03-1.35.08s-.65.17-.87.35c-.37.29-.55.85-.55,1.68Z"/>
    <path class="cls-2" d="m93.63,56.52c-.34,0-.52-.12-.52-.35s.15-.35.45-.35.52-.14.65-.41c.13-.27.23-.59.28-.94.06-.36.23-.74.5-1.13.28-.39.66-.68,1.16-.87-.26-.29-.59-.94-1-1.96-.13-.31-.33-.59-.59-.84s-.57-.37-.92-.37c-.17,0-.3-.03-.4-.09s-.14-.15-.14-.26c0-.23.21-.35.62-.35s.77.12,1.11.37.6.55.77.91c.17.35.32.7.45,1.05.13.35.28.65.44.9s.35.38.57.38h.83v-3.13c0-.16.03-.28.09-.35.06-.07.15-.11.26-.11s.2.04.26.11c.06.07.09.19.09.35v3.13h.83c.23,0,.42-.13.58-.38s.3-.55.44-.9c.13-.35.29-.7.46-1.06s.43-.66.77-.91c.17-.13.34-.22.53-.28s.38-.09.59-.09c.4,0,.6.12.6.35s-.17.35-.52.35-.66.12-.93.37-.47.53-.6.84c-.41,1.02-.74,1.68-1,1.96.5.19.89.48,1.17.87.28.39.44.77.5,1.13.08.45.19.79.33,1.01.14.22.32.34.54.34.18,0,.31.03.39.09.08.06.12.15.12.26s-.05.2-.14.26c-.09.06-.24.09-.43.09-.37,0-.66-.13-.87-.38-.21-.25-.35-.55-.43-.9-.08-.35-.19-.7-.33-1.06s-.42-.66-.85-.91c-.41-.24-.99-.37-1.75-.37v3.16c0,.15-.03.26-.09.34-.06.07-.15.11-.26.11s-.2-.04-.26-.11c-.06-.07-.09-.19-.09-.34v-3.16c-.43,0-.81.04-1.13.13-.32.09-.59.2-.82.35-.19.13-.34.28-.45.45-.11.18-.21.38-.29.61s-.15.49-.23.79c-.1.42-.26.74-.49.95s-.52.32-.88.33Z"/>
    <path class="cls-2" d="m111.36,56.52c-.14,0-.24-.06-.28-.17s-.06-.3-.06-.56,0-.6,0-1.04l.12.28c-.3.46-.69.8-1.16,1.02-.47.23-1.04.34-1.7.34h-1.55c-.5,0-.91-.18-1.23-.53-.31-.35-.47-.9-.47-1.65,0-.64.11-1.14.33-1.5s.5-.62.86-.78c.35-.16.73-.26,1.13-.3.4-.04.78-.06,1.14-.06h2.85l-.32.32v-1.38c0-.39-.07-.67-.22-.84-.14-.16-.41-.25-.78-.25h-2.35c-.44,0-.81.04-1.1.12-.29.08-.5.21-.64.37s-.21.38-.21.63c0,.14-.02.25-.06.33s-.14.12-.29.12c-.23,0-.35-.18-.35-.53,0-.58.24-1.01.71-1.31.48-.29,1.08-.44,1.82-.44h2.58c.61,0,1.03.15,1.25.45.22.3.33.84.33,1.61v5.23c0,.33-.12.5-.35.5Zm-4.64-.82h1.55c1.01,0,1.73-.31,2.16-.95.43-.63.62-1.55.59-2.77l.32.28h-2.85c-.58,0-1.07.04-1.49.12-.41.08-.73.26-.95.52s-.33.67-.33,1.22c0,.57.1.98.31,1.21.21.24.44.35.69.35Z"/>
    <path class="cls-2" d="m121.23,56.4c-.78,0-1.43-.08-1.94-.24-.51-.16-.89-.45-1.14-.87-.25-.42-.38-1.02-.38-1.8v-1.85c0-.78.13-1.38.38-1.8.25-.42.63-.71,1.14-.87s1.16-.24,1.94-.24h.48c.78,0,1.42.08,1.93.24s.89.45,1.14.87c.25.42.37,1.02.37,1.8v1.85c0,.78-.12,1.38-.37,1.8-.25.42-.63.71-1.14.87-.51.16-1.15.24-1.93.24h-.48Zm0-.7h.48c.69,0,1.24-.06,1.64-.17.4-.11.68-.33.85-.65.17-.32.25-.79.25-1.4v-1.85c0-.65-.09-1.14-.27-1.45s-.48-.52-.88-.62c-.4-.1-.93-.15-1.59-.15h-.48c-.68,0-1.22.05-1.62.15-.41.1-.7.3-.87.62-.18.32-.27.8-.27,1.45v1.85c0,.62.09,1.09.26,1.41s.46.53.86.64.95.17,1.64.17Z"/>
    <path class="cls-2" d="m127.77,59.43c-.22,0-.33-.17-.33-.5v-9.82c0-.33.12-.5.35-.5.12,0,.2.04.26.12.06.08.09.21.09.37v1.13l-.12-.15c.31-.46.71-.8,1.19-1.03.48-.22,1.04-.34,1.69-.34h.48c.78,0,1.42.08,1.93.24s.89.45,1.14.87c.25.42.37,1.02.37,1.8v1.85c0,.78-.12,1.38-.37,1.8-.25.42-.63.71-1.14.87-.51.16-1.15.24-1.93.24h-3.25v2.53c0,.33-.12.5-.37.5Zm.37-3.73h3.25c.69,0,1.24-.06,1.64-.17s.68-.33.85-.65c.17-.32.25-.79.25-1.4v-1.85c0-.65-.09-1.14-.27-1.45s-.48-.52-.88-.62c-.4-.1-.93-.15-1.59-.15h-.48c-.89,0-1.57.27-2.05.81-.48.54-.71,1.31-.71,2.31v3.16Z"/>
    <path class="cls-2" d="m143.98,56.52c-.23,0-.35-.17-.35-.52v-6.31l-5.71,6.71h-.82v-7.27c0-.34.12-.52.35-.52s.35.17.35.52v6.38l5.76-6.78h.77v7.28c0,.34-.12.52-.35.52Z"/>
    <path class="cls-2" d="m152.42,49.42h-3.95c-.37,0-.63.08-.78.25-.15.16-.22.44-.22.84v5.51c0,.33-.12.5-.35.5s-.35-.17-.35-.5v-5.23c0-.78.11-1.31.34-1.61.23-.3.64-.45,1.25-.45h4.06c.33,0,.5.12.5.35s-.17.35-.5.35Z"/>
    <path class="cls-2" d="m154.75,46.99c-.17,0-.34-.06-.5-.18-.16-.12-.25-.26-.25-.42.01-.16.1-.3.25-.42.16-.12.32-.18.49-.18s.35.06.52.18.26.26.26.42-.09.29-.26.42-.35.18-.52.18Zm.02,9.52c-.23,0-.35-.15-.35-.45v-6.99c0-.16.03-.28.09-.35.06-.07.15-.11.26-.11s.2.04.26.11c.06.07.09.19.09.35v6.99c0,.3-.12.45-.35.45Z"/>
    <path class="cls-2" d="m157.93,56.52c-.23,0-.35-.17-.35-.5v-6.89c0-.34.11-.52.32-.52.26,0,.38.17.38.52v2.86h5.83v-2.86c0-.34.12-.52.35-.52s.35.17.35.52v6.89c0,.33-.12.5-.35.5s-.35-.17-.35-.5v-3.33h-5.83v3.33c0,.33-.12.5-.35.5Z"/>
    <path class="cls-2" d="m173.38,56.52c-.14,0-.24-.06-.28-.17s-.06-.3-.06-.56,0-.6,0-1.04l.12.28c-.3.46-.69.8-1.16,1.02-.47.23-1.04.34-1.7.34h-1.55c-.5,0-.91-.18-1.23-.53-.31-.35-.47-.9-.47-1.65,0-.64.11-1.14.33-1.5s.5-.62.86-.78c.35-.16.73-.26,1.13-.3.4-.04.78-.06,1.14-.06h2.85l-.32.32v-1.38c0-.39-.07-.67-.22-.84-.14-.16-.41-.25-.78-.25h-2.35c-.44,0-.81.04-1.1.12-.29.08-.5.21-.64.37s-.21.38-.21.63c0,.14-.02.25-.06.33s-.14.12-.29.12c-.23,0-.35-.18-.35-.53,0-.58.24-1.01.71-1.31.48-.29,1.08-.44,1.82-.44h2.58c.61,0,1.03.15,1.25.45.22.3.33.84.33,1.61v5.23c0,.33-.12.5-.35.5Zm-4.64-.82h1.55c1.01,0,1.73-.31,2.16-.95.43-.63.62-1.55.59-2.77l.32.28h-2.85c-.58,0-1.07.04-1.49.12-.41.08-.73.26-.95.52s-.33.67-.33,1.22c0,.57.1.98.31,1.21.21.24.44.35.69.35Z"/>
    <path class="cls-2" d="m182.44,56.52c-.23,0-.35-.17-.35-.52v-6.58h-3.55c-.37,0-.63.08-.78.25-.15.16-.22.44-.22.84v3.83c0,.57-.06,1.01-.18,1.3-.12.3-.31.5-.56.6s-.57.16-.95.16c-.17,0-.3-.03-.39-.09-.09-.06-.13-.15-.13-.26,0-.23.18-.35.53-.35s.61-.08.76-.24c.15-.16.22-.44.22-.82v-3.85c0-.52.05-.92.14-1.23.09-.3.26-.52.49-.65.23-.13.55-.19.95-.19h4.36v7.28c0,.34-.12.52-.35.52Z"/>
    <path class="cls-2" d="m185.27,56.4v-7.27c0-.34.12-.52.35-.52s.35.17.35.52v2.96h3.53c.47,0,.89.07,1.27.21.38.14.69.37.92.68.23.31.34.73.34,1.25s-.11.94-.34,1.26c-.23.32-.53.55-.92.69s-.81.22-1.27.22h-4.23Zm.7-.7h3.41c.66,0,1.15-.12,1.48-.37.32-.24.49-.62.49-1.12,0-.43-.1-.74-.3-.94s-.46-.33-.76-.4c-.3-.06-.6-.09-.9-.09h-3.41v2.91Z"/>
    <path class="cls-2" d="m194.19,56.52c-.23,0-.35-.17-.35-.5v-6.89c0-.34.11-.52.32-.52.26,0,.38.17.38.52v2.86h5.83v-2.86c0-.34.12-.52.35-.52s.35.17.35.52v6.89c0,.33-.12.5-.35.5s-.35-.17-.35-.5v-3.33h-5.83v3.33c0,.33-.12.5-.35.5Z"/>
    <path class="cls-2" d="m206.79,56.4c-.78,0-1.43-.08-1.94-.24-.51-.16-.89-.45-1.14-.87-.25-.42-.38-1.02-.38-1.8v-1.85c0-.78.13-1.38.38-1.8.25-.42.63-.71,1.14-.87s1.16-.24,1.94-.24h.48c.78,0,1.42.08,1.93.24s.89.45,1.14.87c.25.42.37,1.02.37,1.8v1.85c0,.78-.12,1.38-.37,1.8-.25.42-.63.71-1.14.87-.51.16-1.15.24-1.93.24h-.48Zm0-.7h.48c.69,0,1.24-.06,1.64-.17.4-.11.68-.33.85-.65.17-.32.25-.79.25-1.4v-1.85c0-.65-.09-1.14-.27-1.45s-.48-.52-.88-.62c-.4-.1-.93-.15-1.59-.15h-.48c-.68,0-1.22.05-1.62.15-.41.1-.7.3-.87.62-.18.32-.27.8-.27,1.45v1.85c0,.62.09,1.09.26,1.41s.46.53.86.64.95.17,1.64.17Z"/>
    <path class="cls-2" d="m212.1,47.59c-.17,0-.34-.06-.5-.18-.16-.12-.24-.26-.24-.42.01-.16.1-.3.25-.42.16-.12.32-.18.49-.18s.35.06.53.18c.17.12.26.26.26.42s-.09.29-.26.42-.35.18-.53.18Zm1.23,8.92c-.23,0-.35-.15-.35-.45v-6.99c0-.16.03-.28.09-.35.06-.07.15-.11.26-.11s.2.04.26.11c.06.07.09.19.09.35v6.99c0,.3-.12.45-.35.45Zm1.2-8.92c-.17,0-.34-.06-.5-.18-.16-.12-.25-.26-.25-.42.01-.16.1-.3.25-.42.16-.12.32-.18.5-.18s.35.06.52.18c.17.12.26.26.26.42s-.09.29-.26.42-.35.18-.52.18Z"/>
    <path class="cls-2" d="m222.39,56.52c-.23,0-.35-.15-.35-.45v-6.64h-2.58c-.31,0-.47-.12-.47-.35s.16-.35.47-.35h5.84c.31,0,.47.12.47.35s-.16.35-.47.35h-2.56v6.64c0,.15-.03.26-.09.34s-.15.11-.26.11Z"/>
    <path class="cls-2" d="m230.51,56.4c-.78,0-1.43-.08-1.94-.24-.51-.16-.89-.45-1.14-.87-.25-.42-.38-1.02-.38-1.8v-1.85c0-.78.13-1.38.38-1.8.25-.42.63-.71,1.14-.87s1.16-.24,1.94-.24h.48c.78,0,1.42.08,1.93.24s.89.45,1.14.87c.25.42.37,1.02.37,1.8v.6h-6.69v1.25c0,.62.09,1.09.26,1.41s.46.53.86.64.95.17,1.64.17h2.23c.38,0,.64-.08.78-.25.14-.17.22-.43.22-.8,0-.18.04-.32.11-.4.07-.09.15-.13.24-.13.09,0,.18.04.25.12.07.08.1.19.1.33,0,.34-.03.65-.1.92-.07.28-.22.5-.44.66-.23.16-.57.25-1.04.25h-2.35Zm-2.76-4.86h5.99c0-.77-.16-1.31-.48-1.61-.21-.2-.49-.33-.87-.4s-.84-.1-1.4-.1h-.48c-.54,0-.99.03-1.35.08s-.65.17-.87.35c-.37.29-.55.85-.55,1.68Z"/>
    <path class="cls-2" d="m236.44,56.58c-.1,0-.19-.03-.26-.09-.07-.06-.11-.14-.11-.22,0-.05.01-.1.03-.15s.06-.12.12-.2l2.83-3.35-2.83-3.38c-.1-.12-.15-.22-.15-.32s.04-.17.12-.24c.08-.06.16-.1.25-.1.09,0,.2.07.32.2l2.76,3.28,2.75-3.28c.12-.13.22-.2.3-.2.09,0,.18.03.25.1.07.06.11.14.11.24s-.05.2-.15.32l-2.83,3.38,2.83,3.35c.06.07.1.14.12.2.02.06.03.11.03.15,0,.09-.04.16-.11.22-.07.06-.16.09-.26.09-.08,0-.18-.07-.3-.2l-2.75-3.28-2.76,3.28c-.12.13-.22.2-.32.2Z"/>
    <path class="cls-2" d="m245.15,56.52c-.23,0-.35-.17-.35-.5v-6.89c0-.34.11-.52.32-.52.26,0,.38.17.38.52v2.86h5.83v-2.86c0-.34.12-.52.35-.52s.35.17.35.52v6.89c0,.33-.12.5-.35.5s-.35-.17-.35-.5v-3.33h-5.83v3.33c0,.33-.12.5-.35.5Z"/>
    <path class="cls-2" d="m254.82,46.99c-.17,0-.34-.06-.5-.18-.16-.12-.25-.26-.25-.42.01-.16.1-.3.25-.42.16-.12.32-.18.49-.18s.35.06.52.18.26.26.26.42-.09.29-.26.42-.35.18-.52.18Zm.02,9.52c-.23,0-.35-.15-.35-.45v-6.99c0-.16.03-.28.09-.35.06-.07.15-.11.26-.11s.2.04.26.11c.06.07.09.19.09.35v6.99c0,.3-.12.45-.35.45Z"/>
    <path class="cls-2" d="m258,56.52c-.12,0-.2-.04-.26-.11-.06-.07-.09-.19-.09-.34v-6.99c0-.16.03-.28.09-.35.06-.07.15-.11.26-.11s.2.04.26.11c.06.07.09.19.09.35v3.13h1.85c.23,0,.44-.13.65-.38s.41-.55.61-.9c.18-.3.38-.64.62-1.02.24-.38.56-.69.96-.95.37-.24.77-.37,1.18-.37.2,0,.35.03.45.09.1.06.15.15.15.26,0,.17-.07.27-.2.3-.13.03-.24.05-.32.05-.42.02-.77.16-1.05.41s-.52.52-.7.82c-.24.4-.43.71-.57.94-.14.23-.27.42-.39.56-.12.15-.25.3-.41.46.61.24,1.06.53,1.35.87.29.34.51.71.67,1.11.18.46.34.79.48,1,.13.21.34.33.62.35.13,0,.25.03.36.06.11.04.16.13.16.27,0,.24-.18.37-.55.37-.39,0-.7-.12-.95-.37-.24-.25-.44-.55-.6-.91-.07-.16-.17-.36-.28-.6-.11-.24-.27-.48-.47-.73s-.47-.46-.8-.63c-.45-.24-1.06-.37-1.81-.37h-1.01v3.16c0,.15-.03.26-.09.34-.06.07-.15.11-.26.11Z"/>
    <path class="cls-2" d="m273.5,56.52c-.23,0-.35-.17-.35-.52v-6.31l-5.71,6.71h-.82v-7.27c0-.34.12-.52.35-.52s.35.17.35.52v6.38l5.76-6.78h.77v7.28c0,.34-.12.52-.35.52Z"/>
  </g>
</svg>