<svg width="240" height="56" viewBox="0 0 240 56" fill="none" xmlns="http://www.w3.org/2000/svg">
<g clip-path="url(#clip0_17549_298518)">
<path d="M11.3363 26.8772C11.8972 26.8772 12.4581 26.8772 13.0189 26.8772C15.8218 26.8804 18.3011 28.9478 18.8481 31.7383C19.4829 34.9701 17.6416 38.025 14.5059 38.9015C14.0113 39.0392 13.4843 39.1034 12.9712 39.119C11.9049 39.1519 10.837 39.1331 9.76922 39.1284C8.34081 39.1206 7.04804 38.6996 5.93395 37.7793C4.68122 36.7449 3.94625 35.4146 3.72434 33.7807C3.31756 30.7726 5.22054 27.8914 8.03883 27.1167C8.53497 26.9805 9.05733 26.9211 9.57199 26.8867C10.1575 26.8475 10.7477 26.8772 11.3363 26.8772Z" fill="white"/>
<path d="M11.5045 23.2385C12.5584 23.2385 13.6139 23.1931 14.6648 23.2479C17.5185 23.395 19.9023 24.5203 21.6373 26.885C22.4293 27.9649 22.8885 29.1872 22.9363 30.5504C22.9439 30.7554 22.9779 30.9667 22.9409 31.1639C22.8608 31.6005 22.605 31.7915 22.1951 31.7696C21.8284 31.7492 21.5572 31.4691 21.5217 31.0606C21.4971 30.771 21.5063 30.4768 21.4616 30.1904C21.1843 28.4251 20.2305 27.0963 18.8098 26.1009C17.7111 25.331 16.4907 24.8677 15.1533 24.7535C14.6648 24.7112 14.1733 24.6799 13.6817 24.6768C12.0253 24.6674 10.3688 24.6549 8.71394 24.6768C6.79398 24.705 5.05895 25.3012 3.57817 26.5673C2.5088 27.4813 1.79229 28.6223 1.52572 30.0308C1.47178 30.3156 1.46716 30.6099 1.41323 30.8947C1.33465 31.3047 1.04034 31.5348 0.664366 31.5098C0.309962 31.4863 0.0079496 31.1858 0.00640869 30.7836C0.00640869 30.4268 0.0464715 30.0621 0.118893 29.7115C0.678231 26.9899 2.34546 25.1948 4.77389 24.0664C6.0451 23.4748 7.39186 23.2072 8.79404 23.226C9.69701 23.2385 10.6 23.2275 11.5045 23.2275C11.5045 23.2307 11.5045 23.2338 11.5045 23.2369V23.2385Z" fill="#FFF200"/>
<path d="M11.4812 42.609C10.3178 42.609 9.14675 42.6998 7.99263 42.5918C4.78295 42.2929 2.22973 40.8671 0.691929 37.8763C0.211173 36.9404 -0.00454994 35.9231 7.2682e-05 34.8652C0.00315444 34.3644 0.314412 34.067 0.765889 34.0858C1.11413 34.0999 1.35913 34.3112 1.4069 34.6649C1.4562 35.0358 1.46083 35.413 1.52708 35.7792C1.80599 37.327 2.61495 38.5462 3.82607 39.5024C4.97711 40.4101 6.28223 40.9423 7.72913 41.0941C8.24378 41.1473 8.76307 41.1723 9.2808 41.1755C10.9373 41.1848 12.5921 41.1864 14.2486 41.1755C15.9204 41.166 17.4598 40.6934 18.8343 39.7278C20.0885 38.8467 20.9869 37.6854 21.3675 36.1595C21.4476 35.8387 21.4538 35.5006 21.5231 35.1767C21.5678 34.9669 21.6263 34.7415 21.7465 34.5725C21.9145 34.3346 22.2365 34.2845 22.4892 34.3878C22.8066 34.5177 22.9654 34.7744 22.9561 35.1422C22.9268 36.2596 22.6387 37.3098 22.0963 38.2785C20.9853 40.2646 19.2857 41.4963 17.1747 42.1833C16.2333 42.4901 15.264 42.6372 14.2717 42.6215C13.341 42.6075 12.4103 42.6184 11.4796 42.6184C11.4796 42.6137 11.4796 42.6106 11.4796 42.6059L11.4812 42.609Z" fill="#FFF200"/>
<path d="M11.4951 19.592C9.95575 19.6843 8.22072 18.3916 8.22996 16.3069C8.23767 14.4132 9.61674 13 11.4951 13C13.5306 13 14.7463 14.7247 14.7371 16.3242C14.7278 18.1318 13.1978 19.6687 11.4951 19.5904V19.592Z" fill="#FFF200"/>
<path d="M114.882 33.1734C115.616 34.0357 116.132 34.9559 116.227 36.0812C116.471 38.9296 114.426 41.2787 111.596 41.3304C109.62 41.3663 107.645 41.3382 105.669 41.3382C102.492 41.3382 99.3162 41.3413 96.1391 41.3382C93.5612 41.3351 91.8831 39.6401 91.8801 37.0327C91.8753 33.6069 91.8768 30.1794 91.8801 26.7536C91.8801 25.4311 92.3624 24.9444 93.6644 24.9428C99.4843 24.9412 105.304 24.949 111.124 24.9381C113.198 24.935 114.849 25.7269 115.771 27.6363C116.693 29.5425 116.366 31.3564 115.003 32.973C114.968 33.0137 114.947 33.0654 114.884 33.1749L114.882 33.1734ZM98.0896 34.4755C97.7509 32.0903 98.7385 31.7523 100.21 31.7836C103.065 31.8462 105.923 31.8024 108.78 31.8024C109.716 31.8024 110.651 31.8243 111.583 31.7946C112.699 31.7586 113.566 30.8946 113.637 29.8085C113.704 28.7912 112.935 27.8554 111.85 27.655C111.563 27.6018 111.267 27.5768 110.976 27.5768C105.743 27.5721 100.509 27.5736 95.2761 27.5768C95.0465 27.5768 94.8168 27.6097 94.5656 27.6284C94.5489 27.9117 94.5255 28.1245 94.5255 28.3374C94.5226 31.2515 94.5196 34.1656 94.5255 37.0813C94.5289 38.2973 94.957 38.7074 96.1885 38.7089C101.155 38.7105 106.121 38.7105 111.089 38.7089C112.613 38.7089 113.648 37.8857 113.637 36.6243C113.628 35.582 112.891 34.4364 111.083 34.4614C107.051 34.5178 103.019 34.4786 98.9864 34.4786C98.6985 34.4786 98.4102 34.4786 98.0896 34.4786V34.4755Z" fill="white"/>
<path d="M186.604 34.6179V41.3319C186.071 41.3319 185.624 41.3585 185.18 41.3257C184.505 41.2771 184.066 40.8108 184.004 40.1253C183.99 39.9641 184 39.8013 184 39.6401C184 35.0279 184 30.4142 184 25.802V24.9741C184.203 24.96 184.331 24.9506 184.457 24.9428C186.143 24.8395 186.692 25.248 186.616 27.0478C186.553 28.5784 186.604 30.1137 186.604 31.7257C186.915 31.7476 187.169 31.7789 187.424 31.7804C189.611 31.7852 191.801 31.7993 193.989 31.7679C194.393 31.7617 194.838 31.6505 195.191 31.4534C198.717 29.4892 202.227 27.4969 205.742 25.514C205.997 25.37 206.248 25.2135 206.515 25.0915C207.201 24.7738 207.905 24.9882 208.249 25.6048C208.614 26.259 208.423 26.9946 207.771 27.4312C207.638 27.5204 207.494 27.5908 207.353 27.6691C204.141 29.4767 200.928 31.2859 197.621 33.1467C197.908 33.3158 198.127 33.4504 198.35 33.5756C201.378 35.2783 204.404 36.9858 207.44 38.6776C208.014 38.9984 208.46 39.3803 208.423 40.1049C208.369 41.1692 207.305 41.6637 206.272 41.0878C204.031 39.8373 201.8 38.5681 199.566 37.3082C198.052 36.4553 196.539 35.6023 195.02 34.7619C194.794 34.6367 194.529 34.5114 194.282 34.5099C191.8 34.4958 189.319 34.5099 186.837 34.5162C186.79 34.5162 186.744 34.5553 186.608 34.6179H186.604Z" fill="white"/>
<path d="M68.8035 41.3382C68.8035 40.9423 68.7987 40.6762 68.8035 40.4102C68.8265 39.3115 69.4105 38.7121 70.4999 38.709C73.4369 38.6996 76.3736 38.7058 79.3121 38.7058C79.7114 38.7058 80.1102 38.7058 80.6252 38.7058C80.4831 38.4366 80.3941 38.2285 80.2724 38.0438C78.172 34.8245 76.0701 31.6068 73.9638 28.3906C73.2317 27.2732 72.4953 27.2795 71.7729 28.4016C69.1686 32.4472 66.5659 36.4944 63.9635 40.5416C63.8032 40.7905 63.6351 41.033 63.4318 41.3367C62.8185 41.3367 62.1807 41.3633 61.5459 41.3304C60.8309 41.2929 60.5181 40.7075 60.8925 40.0784C61.2902 39.4085 61.754 38.7794 62.1837 38.1283C64.72 34.2955 67.3272 30.5066 69.7649 26.6112C71.0701 24.525 74.4398 24.3591 75.9332 26.5251C78.7697 30.6412 81.739 34.6633 84.6731 38.709C85.1013 39.299 85.348 39.8812 85.0226 40.5729C84.6991 41.2616 84.0813 41.3476 83.3986 41.346C78.8331 41.3335 74.2658 41.3398 69.7003 41.3398C69.4384 41.3398 69.1749 41.3398 68.8035 41.3398V41.3382Z" fill="white"/>
<path d="M223.631 41.3382C223.631 40.9423 223.627 40.6762 223.631 40.4102C223.654 39.3115 224.238 38.7121 225.328 38.709C228.265 38.6996 231.202 38.7058 234.14 38.7058C234.539 38.7058 234.938 38.7058 235.453 38.7058C235.311 38.4366 235.222 38.2285 235.1 38.0438C233 34.8245 230.898 31.6068 228.792 28.3906C228.06 27.2732 227.323 27.2795 226.601 28.4016C223.997 32.4472 221.394 36.4944 218.791 40.5416C218.631 40.7905 218.463 41.033 218.26 41.3367C217.646 41.3367 217.009 41.3633 216.374 41.3304C215.659 41.2929 215.346 40.7075 215.72 40.0784C216.118 39.4085 216.582 38.7794 217.012 38.1283C219.548 34.2955 222.155 30.5066 224.593 26.6112C225.898 24.525 229.268 24.3591 230.761 26.5251C233.598 30.6412 236.567 34.6633 239.501 38.709C239.929 39.299 240.176 39.8812 239.851 40.5729C239.527 41.2616 238.909 41.3476 238.227 41.346C233.661 41.3335 229.094 41.3398 224.528 41.3398C224.266 41.3398 224.003 41.3398 223.631 41.3398V41.3382Z" fill="white"/>
<path d="M151.951 24.9412C152.338 24.9412 152.603 24.9381 152.87 24.9412C154.011 24.9585 154.544 25.4781 154.552 26.6221C154.564 28.2951 154.554 29.9682 154.555 31.6428C154.56 35.8621 157.373 38.7058 161.543 38.7074C163.332 38.7074 165.122 38.712 166.911 38.7074C170.768 38.6964 173.63 35.8026 173.642 31.8978C173.648 29.9009 173.642 27.9038 173.642 25.9053C173.642 25.6142 173.642 25.3216 173.642 24.9459C174.113 24.9459 174.508 24.9209 174.898 24.9506C175.648 25.0101 176.268 25.5453 176.266 26.2872C176.266 28.713 176.394 31.1623 176.117 33.5599C175.608 37.9546 171.697 41.2991 167.326 41.3351C165.162 41.3523 162.999 41.3601 160.836 41.3351C156.021 41.2756 151.982 37.1626 151.951 32.3016C151.937 30.0886 151.948 27.8757 151.948 25.6627V24.9444L151.951 24.9412Z" fill="white"/>
<path d="M126.13 24.9788V27.0635C126.13 30.4095 126.129 33.7556 126.13 37.1017C126.13 38.3114 126.517 38.7058 127.702 38.7058C133.71 38.7074 139.717 38.7058 145.724 38.7089C147.312 38.7089 148.102 39.6323 147.898 41.3398H147.057C140.543 41.3398 134.028 41.3414 127.513 41.3398C125.021 41.3398 123.489 39.781 123.486 37.2378C123.48 33.8385 123.485 30.4377 123.486 27.0384C123.486 25.3138 123.899 24.9084 125.628 24.9444C125.759 24.9475 125.89 24.9632 126.13 24.9804V24.9788Z" fill="white"/>
<path d="M47.3438 35.1031V41.3147C46.7891 41.3147 46.2883 41.3601 45.7981 41.3038C45.1065 41.224 44.7259 40.7028 44.7136 39.8405C44.6936 38.5446 44.7073 37.2488 44.7073 35.9545C44.7073 35.6602 44.7073 35.366 44.7073 35.0639C42.3528 33.405 40.0339 31.7696 37.7135 30.1356C36.7271 29.4423 35.7394 28.7506 34.7548 28.0588C33.8472 27.4219 33.6161 26.6659 34.1107 25.9617C34.593 25.2762 35.3819 25.2433 36.2941 25.8834C39.5163 28.1465 42.7349 30.4111 46.0219 32.7226C46.2452 32.5708 46.4838 32.4128 46.7183 32.2485C49.7414 30.1215 52.7631 27.9947 55.7862 25.8693C55.8741 25.8083 55.9621 25.7473 56.053 25.6909C56.7772 25.2417 57.5552 25.3591 57.9619 25.9805C58.3904 26.6346 58.2454 27.3843 57.5489 27.8835C56.0897 28.9274 54.6167 29.951 53.1482 30.9839C51.3962 32.2171 49.6427 33.4488 47.8922 34.6837C47.7197 34.8057 47.5564 34.9435 47.3453 35.1078L47.3438 35.1031Z" fill="white"/>
</g>
<defs>
<clipPath id="clip0_17549_298518">
<rect width="240" height="56" fill="white"/>
</clipPath>
</defs>
</svg>
